<svg id="Layer_1" data-name="Layer 1" xmlns="http://www.w3.org/2000/svg" viewBox="0 0 192.31 62.73"><defs><style>.cls-1{fill:#1a5eab;}.cls-2{fill:#008581;}.cls-3{fill:#e6b350;}.cls-4{fill:#fff;}</style></defs><title>horizontal_logo_dillworth</title><path class="cls-1" d="M77,25.25c0-2-.12-2.62-1.15-2.79l-0.54-.09a0.47,0.47,0,0,1,0-.72c2.08-.14,4.06-0.23,6.13-0.23a13.2,13.2,0,0,1,5.38.86c3.3,1.41,5,4.69,5,8.48a9.8,9.8,0,0,1-4.28,8.57A10.34,10.34,0,0,1,82,40.71c-0.78,0-1.56-.06-2.25-0.12s-1.3-.11-1.74-0.11c-1,0-1.91,0-3.05.09a0.63,0.63,0,0,1,0-.72l0.56-.09c1.42-.23,1.47-0.57,1.47-3.59V25.25Zm2,10.26a6.13,6.13,0,0,0,.49,3.13c0.54,0.89,1.47,1.18,3,1.18,4.74,0,6.87-3.65,6.87-9,0-3.16-1.3-8.51-7.7-8.51a4.73,4.73,0,0,0-2.42.4A4.43,4.43,0,0,0,79,24.9V35.51Z" transform="translate(-3.36 -10.33)"/><path class="cls-1" d="M95.9,27c0-2.81,0-3.26-1.38-3.4L94,23.55a0.59,0.59,0,0,1,0-.66c1.13,0.05,1.9.08,2.84,0.08s1.67,0,2.8-.08a0.59,0.59,0,0,1,0,.66l-0.56.05c-1.33.13-1.38,0.58-1.38,3.4v9.45c0,2.81,0,3.19,1.38,3.37l0.56,0.08a0.59,0.59,0,0,1,0,.66c-1.13-.05-1.89-0.08-2.8-0.08s-1.71,0-2.84.08a0.59,0.59,0,0,1,0-.66l0.56-.08c1.33-.19,1.38-0.56,1.38-3.37V27Z" transform="translate(-3.36 -10.33)"/><path class="cls-1" d="M104.16,27c0-2.79,0-3.21-1.47-3.34l-0.56-.05a0.59,0.59,0,0,1,0-.66c1.26,0.05,2,.08,2.93.08s1.65,0,2.77-.08a0.59,0.59,0,0,1,0,.66l-0.54.05c-1.33.13-1.38,0.56-1.38,3.34v9.24c0,1.67.07,2.36,0.47,2.87,0.25,0.29.68,0.61,2.46,0.61s2.39-.11,2.75-0.34a5.77,5.77,0,0,0,1.49-2.63,0.4,0.4,0,0,1,.56.16,24.21,24.21,0,0,1-.95,3.72c-0.56,0-1.4-.05-2.37-0.05s-2.08,0-3.25,0h-2.07c-0.95,0-1.67,0-2.93.08a0.59,0.59,0,0,1,0-.66l0.68-.08c1.31-.16,1.35-0.53,1.35-3.32V27Z" transform="translate(-3.36 -10.33)"/><path class="cls-1" d="M110.44,23.53a0.49,0.49,0,0,1,.07-0.64c0.61,0.05,1.62.08,2.32,0.08s1.78,0,2.57-.08a0.46,0.46,0,0,1,0,.64l-0.52.05c-0.47.05-.74,0.21-0.74,0.45a23.82,23.82,0,0,0,1.17,3.56c1.26,3.32,2.59,6.63,3.9,9.9,0.54-1.33,1.13-2.81,1.74-4.3a7.53,7.53,0,0,0,.36-1.09,2.61,2.61,0,0,0-.18-0.69c-0.79-2.12-1.62-4.25-2.48-6.37a1.84,1.84,0,0,0-1.44-1.46l-0.54-.05a0.46,0.46,0,0,1,0-.64c0.65,0.05,1.51.08,2.41,0.08,1.13,0,2,0,2.48-.08a0.5,0.5,0,0,1,0,.64l-0.59.05c-0.88.08-.92,0.27-0.47,1.46s1.11,3,1.74,4.62c0.43-1,.83-2,1.33-3.48,0.81-2.26.7-2.55,0-2.6L123,23.53a0.46,0.46,0,0,1,0-.64c0.61,0.05,1.29.08,2.12,0.08s1.65,0,2.17-.08a0.5,0.5,0,0,1,0,.64l-0.65.05c-0.95.08-1.35,1.27-1.85,2.36s-1.42,3.29-1.76,4.22a2.44,2.44,0,0,0-.2.64,2.3,2.3,0,0,0,.16.64c0.77,2,1.56,4,2.3,6.05,0.7-1.86,1.35-3.72,2-5.6,0.43-1.27,1.65-4.8,1.8-5.28a18.18,18.18,0,0,0,.68-2.42,0.65,0.65,0,0,0-.74-0.61l-0.65-.05a0.43,0.43,0,0,1,0-.64c0.86,0.05,1.47.08,2.17,0.08,0.86,0,1.51,0,2.1-.08a0.45,0.45,0,0,1,0,.64l-0.43.05c-1.13.13-1.33,0.93-2.68,4.62l-1.65,4.49c-1,2.71-1.89,5.31-2.82,8.15a0.42,0.42,0,0,1-.27.08,0.62,0.62,0,0,1-.32-0.08c-0.72-2.36-2-5.68-2.73-7.54-0.81,1.94-2.17,5.33-2.82,7.54a0.42,0.42,0,0,1-.27.08,0.77,0.77,0,0,1-.34-0.08c-0.38-1.11-1.26-3.5-1.56-4.27-1.44-3.69-2.84-7.38-4.31-11.07-0.43-1.09-.7-1.8-1.65-1.91Z" transform="translate(-3.36 -10.33)"/><path class="cls-1" d="M132,31.91c0-5.31,3.38-9.37,8-9.37,5.21,0,7.83,4.43,7.83,9.1,0,5.36-3.47,9.26-7.83,9.26C135,40.91,132,36.69,132,31.91Zm13.6,0.56c0-4.38-1.65-9.1-6-9.1-2.35,0-5.39,1.88-5.39,7.7,0,3.93,1.62,9,6.07,9C143,40.09,145.56,37.7,145.56,32.47Z" transform="translate(-3.36 -10.33)"/><path class="cls-1" d="M150.68,27c0-2.52-.07-3-1-3.11L149,23.77a0.5,0.5,0,0,1,0-.66,48,48,0,0,1,5-.21,7,7,0,0,1,3.77.8,4.08,4.08,0,0,1,1.87,3.72,4.84,4.84,0,0,1-2.82,4.43,0.69,0.69,0,0,0,.11.64c1.8,3.42,3,5.55,4.53,7.06a2.5,2.5,0,0,0,1.56.74,0.24,0.24,0,0,1,0,.37,3,3,0,0,1-1,.13c-1.92,0-3.07-.66-4.67-3.34-0.59-1-1.51-2.81-2.21-4a1.54,1.54,0,0,0-1.6-.85c-1,0-1.06,0-1.06.58V36.5c0,2.79,0,3.1,1.35,3.32l0.47,0.08a0.59,0.59,0,0,1,0,.66c-1-.05-1.78-0.08-2.68-0.08s-1.76,0-2.82.08a0.58,0.58,0,0,1,0-.66l0.56-.08c1.31-.19,1.35-0.53,1.35-3.32V27Zm1.85,3.79a2.43,2.43,0,0,0,.07.88,3.53,3.53,0,0,0,1.56.13,3.35,3.35,0,0,0,2.32-.69,4.13,4.13,0,0,0,1.13-3.29c0-2.1-1.11-4.09-3.61-4.09-1.4,0-1.47.11-1.47,0.85v6.21Z" transform="translate(-3.36 -10.33)"/><path class="cls-1" d="M169.24,36.5c0,2.79,0,3.16,1.35,3.32l0.72,0.08a0.59,0.59,0,0,1,0,.66c-1.29-.05-2.05-0.08-3-0.08s-1.69,0-3.14.08a0.52,0.52,0,0,1,0-.66l0.81-.08c1.29-.13,1.4-0.53,1.4-3.32V24.64c0-.82,0-0.85-0.68-0.85h-1.24c-1,0-2.21.05-2.78,0.66a5,5,0,0,0-1,1.83,0.4,0.4,0,0,1-.59-0.19,32.06,32.06,0,0,0,.86-4,0.49,0.49,0,0,1,.43,0c0.14,0.85.88,0.82,1.92,0.82h9.14c1.22,0,1.42-.05,1.76-0.74a0.37,0.37,0,0,1,.41.08,18.78,18.78,0,0,0-.34,4,0.38,0.38,0,0,1-.59.05,3.76,3.76,0,0,0-.56-1.94,4,4,0,0,0-2.62-.66h-1.6c-0.68,0-.65,0-0.65.9V36.5Z" transform="translate(-3.36 -10.33)"/><path class="cls-1" d="M182.73,31.2c-1.17,0-1.22.06-1.22,0.92v4.05c0,3,.12,3.42,1.49,3.59l0.71,0.09a0.64,0.64,0,0,1,0,.72c-1.32-.06-2.15-0.09-3.1-0.09s-1.88.06-2.83,0.09a0.63,0.63,0,0,1,0-.72l0.41-.09c1.37-.29,1.42-0.57,1.42-3.59V25.82c0-3-.17-3.51-1.44-3.62l-0.64-.06a0.64,0.64,0,0,1,0-.72c1.2,0,2,.09,3.08.09s1.78,0,2.83-.09a0.64,0.64,0,0,1,0,.72L183,22.2c-1.42.17-1.47,0.6-1.47,3.62v3.31c0,0.89,0,.92,1.22.92h7c1.17,0,1.22,0,1.22-.92V25.82c0-3,0-3.45-1.49-3.62L189,22.14a0.64,0.64,0,0,1,0-.72c1.12,0.06,2,.09,3,0.09s1.78,0,2.88-.09a0.64,0.64,0,0,1,0,.72l-0.51.06c-1.42.17-1.47,0.6-1.47,3.62V36.17c0,3,0,3.39,1.47,3.59L195,39.85a0.64,0.64,0,0,1,0,.72c-1.17-.06-2-0.09-3-0.09s-1.88,0-3,.09a0.64,0.64,0,0,1,0-.72l0.46-.09c1.49-.23,1.44-0.57,1.49-3.59V32.12c0-.86,0-0.92-1.22-0.92h-7Z" transform="translate(-3.36 -10.33)"/><path class="cls-2" d="M76.73,53.05c0-1.17,0-1.57,0-2.33,0-1-.3-1.11-1.62-1.11-0.18,0-.18-0.13-0.18-0.28A0.18,0.18,0,0,1,75,49.12c0.13,0,1.57.07,2.61,0.07,1.93,0,4.34-.07,5.55-0.07,0.38,0,.59,0,0.63.13,0.43,1.52.73,2.23,0.73,2.33s-0.1.12-.25,0.12-0.4-.48-1.85-1.7a1.74,1.74,0,0,0-1.14-.38c-0.43,0-1.85.07-2.48,0.1-0.38,0-.48.35-0.48,1.27v3.89h1.11c1.78,0,1.91-.73,1.95-0.91,0.2-1.22.25-1.22,0.36-1.22s0.31,0,.31.12v2.48c0,1,.08,1.55.08,2,0,0.12-.12.13-0.21,0.13s-0.23-.07-0.25-0.18c-0.25-1.78-.54-1.88-2.15-1.88h-1.2V57.1c0,0.71,0,1.78,0,2.61,0,0.45.12,0.73,1.42,0.73,0.63,0,.63.1,0.63,0.28s0,0.22-.3.22c-0.12,0-.18,0-2.62,0s-2.38,0-2.49,0-0.13-.07-0.13-0.22,0-.28.35-0.28c1.3,0,1.4-.28,1.42-0.73,0-.83,0-1.9,0-2.61v-4Z" transform="translate(-3.36 -10.33)"/><path class="cls-2" d="M88.63,60a0.26,0.26,0,0,0,.28.33A2.27,2.27,0,0,0,89.62,60a0.27,0.27,0,0,1,.21.18,2.67,2.67,0,0,1-1.65,1c-0.59,0-.73-0.38-0.91-1a3.15,3.15,0,0,1-2.13,1,1.44,1.44,0,0,1-1.58-1.47c0-.84.49-1.53,3.73-2.74v-1.5a1.5,1.5,0,0,0-1.39-1.3,1.92,1.92,0,0,0-1.17.76,7.25,7.25,0,0,1,.21.83,0.7,0.7,0,0,1-.81.63,0.63,0.63,0,0,1-.69-0.61c0-.45.12-0.66,1.35-1.49s1.42-.83,1.78-0.83a2,2,0,0,1,2,1.9V60ZM87.3,57.56a0.15,0.15,0,0,0-.12-0.16,8.56,8.56,0,0,0-1.63.81A1.2,1.2,0,0,0,85,59.41a0.87,0.87,0,0,0,.78,1,1.86,1.86,0,0,0,1.52-.87v-2Z" transform="translate(-3.36 -10.33)"/><path class="cls-2" d="M91.43,55.46a0.86,0.86,0,0,0-1-1,0.15,0.15,0,0,1-.15-0.2A0.2,0.2,0,0,1,90.44,54a7.38,7.38,0,0,0,2.31-.81s0,0.05,0,.18,0,0.46,0,1.11a6.77,6.77,0,0,1,2.9-1.06,2,2,0,0,1,1.8,1.07A4.87,4.87,0,0,1,100,53.47a1.91,1.91,0,0,1,2.18,2v4.39c0,0.28,0,.59,1.07.59,0.16,0,.16.1,0.16,0.22s0,0.21-.23.21c-0.49,0-.79,0-1.67,0-1.34,0-1.6,0-1.73,0s-0.12-.12-0.12-0.2a0.21,0.21,0,0,1,.23-0.23c0.79,0,.94-0.07.94-0.61V55.58a1.45,1.45,0,0,0-1.68-1.35,2.41,2.41,0,0,0-1.68.91v4.23c0,0.94,0,1.14.76,1.14,0.45,0,.48,0,0.48.21s0,0.22-.17.22-0.3,0-1.73,0-1.6,0-1.73,0S95,60.81,95,60.73a0.21,0.21,0,0,1,.23-0.23c0.79,0,.94-0.07.94-0.64V55.58c0-.63-0.13-1.35-1.68-1.35a2.41,2.41,0,0,0-1.68.91v4.23c0,0.94,0,1.14.76,1.14,0.45,0,.48,0,0.48.21s0,0.22-.16.22-0.3,0-1.45,0c-1.55,0-1.82,0-2.06,0s-0.13-.1-0.13-0.18,0-.25.46-0.25a0.62,0.62,0,0,0,.68-0.4,16.76,16.76,0,0,0,.1-2.38V55.46Z" transform="translate(-3.36 -10.33)"/><path class="cls-2" d="M107,59.36c0,0.94,0,1.14.76,1.14,0.36,0,.4,0,0.4.21s0,0.22-.17.22-0.3,0-1.37,0c-1.55,0-2,0-2.23,0s-0.13-.1-0.13-0.18,0-.25.63-0.25a0.62,0.62,0,0,0,.68-0.4,16.66,16.66,0,0,0,.1-2.38V55.46a0.86,0.86,0,0,0-1-1,0.15,0.15,0,0,1-.15-0.2,0.2,0.2,0,0,1,.13-0.23,7.38,7.38,0,0,0,2.31-.81c0.07,0,.1.08,0.1,0.18a15,15,0,0,0-.08,2.38v3.56Zm-1.54-9.29a0.86,0.86,0,1,1,.86.88A0.88,0.88,0,0,1,105.46,50.07Z" transform="translate(-3.36 -10.33)"/><path class="cls-2" d="M111.65,59.36c0,0.94,0,1.14.76,1.14,0.45,0,.48,0,0.48.21s0,0.22-.17.22-0.3,0-1.45,0c-1.55,0-2,0-2.15,0s-0.13-.1-0.13-0.18,0-.25.63-0.25a0.57,0.57,0,0,0,.59-0.4c0.07-.15.1-2.33,0.1-3V51.29c0-1.44,0-1.63-1-1.72a0.17,0.17,0,0,1-.15-0.2,0.2,0.2,0,0,1,.13-0.23,13.22,13.22,0,0,0,2.29-.71,0.15,0.15,0,0,1,.1.18,15,15,0,0,0-.08,2.38v8.37Z" transform="translate(-3.36 -10.33)"/><path class="cls-2" d="M119.65,54.74c0-.54-0.78-0.56-1.27-0.56-0.15,0-.17-0.08-0.17-0.21a0.19,0.19,0,0,1,.15-0.22c0.53,0,1.07,0,1.6,0s1,0,1.53,0c0.12,0,.12.15,0.12,0.22s0,0.2-.28.21a1,1,0,0,0-1,.73c-0.59,1.37-2.87,6.16-3.24,7.08-1.27,3.18-1.82,3.4-2.36,3.4a0.93,0.93,0,1,1,0-1.87,3.56,3.56,0,0,1,.83.28c0.3,0,1.07-1.58,1.07-2.36a7.89,7.89,0,0,0-.58-1.85c-1-2.67-1.35-4.11-1.7-5a1.43,1.43,0,0,0-1.19-.38,0.19,0.19,0,0,1-.15-0.23,0.18,0.18,0,0,1,.18-0.2c0.2,0,1.24,0,1.83,0s1.14,0,1.63,0a0.18,0.18,0,0,1,.2.22,0.2,0.2,0,0,1-.16.21c-0.1,0-.81,0-0.81.36,0,0.79.56,2.43,1.63,5.18A33.55,33.55,0,0,0,119.65,54.74Z" transform="translate(-3.36 -10.33)"/><path class="cls-2" d="M130.29,53.05c0-1.17,0-1.57,0-2.33,0-1-.3-1.11-1.49-1.11-0.18,0-.18-0.13-0.18-0.28a0.18,0.18,0,0,1,.15-0.22c0.13,0,1.57.07,2.61,0.07,0.86,0,1.6-.07,2.1-0.07,2.51,0,3.75.16,5.15,1.11a5.55,5.55,0,0,1,2.2,4.52A6,6,0,0,1,139,59.19a7,7,0,0,1-4.64,1.73c-0.43,0-1.06,0-3,0-2.43,0-2.49,0-2.61,0s-0.13-.07-0.13-0.22,0-.28.46-0.28c0.78,0,1.16-.28,1.17-0.73,0-.83,0-1.9,0-2.61v-4Zm1.63,6.6c0,0.58.49,0.78,1.55,0.78a5.14,5.14,0,0,0,5.35-5.56,5.22,5.22,0,0,0-2.16-4.52,5.68,5.68,0,0,0-3.1-.73c-1.63,0-1.63.1-1.63,1.24v8.8Z" transform="translate(-3.36 -10.33)"/><path class="cls-2" d="M142.72,56.44a5.91,5.91,0,0,0-.07.94,2.78,2.78,0,0,0,2.71,2.72,2.15,2.15,0,0,0,1.93-1,0.61,0.61,0,0,1,.25-0.28,0.35,0.35,0,0,1,.26.2,3,3,0,0,1-2.84,2.1c-2.36,0-3.6-1.45-3.6-3.76s1.6-4,3.3-4a2.76,2.76,0,0,1,3,2.86c0,0.17-.07.18-0.2,0.18h-4.7Zm2.84-.5a0.47,0.47,0,0,0,.56-0.54,1.4,1.4,0,0,0-1.45-1.57c-1.19,0-1.68,1-1.85,2.11h2.74Z" transform="translate(-3.36 -10.33)"/><path class="cls-2" d="M151.25,59.36c0,0.94,0,1.14.76,1.14,0.45,0,.48,0,0.48.21s0,0.22-.16.22-0.3,0-1.45,0c-1.55,0-2,0-2.23,0s-0.13-.1-0.13-0.18,0-.25.63-0.25a0.62,0.62,0,0,0,.68-0.4,16.63,16.63,0,0,0,.1-2.38V55.46a0.86,0.86,0,0,0-1-1,0.15,0.15,0,0,1-.15-0.2,0.2,0.2,0,0,1,.13-0.23,7.38,7.38,0,0,0,2.31-.81s0.05,0.05.05,0.18,0,0.46,0,1.19a5,5,0,0,1,2.59-1.14c0.56,0,2.18.12,2.18,2.48v4c0,0.28,0,.59,1.07.59,0.16,0,.16.1,0.16,0.21s0,0.22-.23.22c-0.49,0-.79,0-1.67,0-1.34,0-1.6,0-1.73,0s-0.12-.12-0.12-0.2a0.21,0.21,0,0,1,.23-0.23c0.79,0,.94-0.07.94-0.61v-3c0-1.53-.13-2.56-1.85-2.56a2.45,2.45,0,0,0-1.58.76v4.23Z" transform="translate(-3.36 -10.33)"/><path class="cls-2" d="M159.59,58c0,1.75.15,2.38,1.45,2.38a2.72,2.72,0,0,0,1.12-.38,0.33,0.33,0,0,1,.18.26,2.52,2.52,0,0,1-2.2.87,1.8,1.8,0,0,1-1.9-2V54.74a0.17,0.17,0,0,0-.16-0.22h-0.83a0.12,0.12,0,0,1-.1-0.15,0.29,0.29,0,0,1,.1-0.23c1.53-1.15,1.85-2,2.18-2a0.19,0.19,0,0,1,.2.21c0,0.3,0,.58,0,1.52h2.54c0.12,0,.16.12,0.16,0.35a0.38,0.38,0,0,1-.45.41c-0.12,0-.89-0.08-2.26-0.08V58Z" transform="translate(-3.36 -10.33)"/><path class="cls-2" d="M165.93,59.36c0,0.94,0,1.14.76,1.14,0.36,0,.4,0,0.4.21s0,0.22-.17.22-0.3,0-1.37,0c-1.55,0-2,0-2.23,0s-0.13-.1-0.13-0.18,0-.25.63-0.25a0.62,0.62,0,0,0,.68-0.4,16.63,16.63,0,0,0,.1-2.38V55.46a0.86,0.86,0,0,0-1-1,0.16,0.16,0,0,1-.15-0.2A0.2,0.2,0,0,1,163.6,54a7.38,7.38,0,0,0,2.31-.81c0.07,0,.1.08,0.1,0.18a15,15,0,0,0-.08,2.38v3.56Zm-1.53-9.29a0.86,0.86,0,1,1,.86.88A0.88,0.88,0,0,1,164.4,50.07Z" transform="translate(-3.36 -10.33)"/><path class="cls-2" d="M173,58.88c0,0.81-.43,2.24-2.69,2.24-0.3,0-1.25-.13-1.9-0.13a0.11,0.11,0,0,1-.08-0.08c0-.16-0.38-1.62-0.38-1.78s0.23-.1.3-0.1c0.4,0,.49,1.67,2.08,1.67a1.41,1.41,0,0,0,1.5-1.47c0-1.73-3.7-1.17-3.7-3.51a2.32,2.32,0,0,1,2.51-2.25,13.27,13.27,0,0,1,1.78.15,0.47,0.47,0,0,1,.25.46c0,0.68.18,1.11,0.18,1.32a0.15,0.15,0,0,1-.18.13,0.29,0.29,0,0,1-.33-0.23,1.94,1.94,0,0,0-1.72-1.4,1.19,1.19,0,0,0-1.32,1.24,1.25,1.25,0,0,0,.77,1.11C171.8,57.06,173,57,173,58.88Z" transform="translate(-3.36 -10.33)"/><path class="cls-2" d="M176.37,58c0,1.75.15,2.38,1.45,2.38a2.73,2.73,0,0,0,1.12-.38,0.33,0.33,0,0,1,.18.26,2.51,2.51,0,0,1-2.19.87,1.8,1.8,0,0,1-1.9-2V54.74a0.17,0.17,0,0,0-.17-0.22H174a0.12,0.12,0,0,1-.1-0.15,0.29,0.29,0,0,1,.1-0.23c1.54-1.15,1.85-2,2.18-2a0.19,0.19,0,0,1,.2.21c0,0.3,0,.58,0,1.52h2.54c0.12,0,.16.12,0.16,0.35a0.38,0.38,0,0,1-.45.41c-0.12,0-.89-0.08-2.26-0.08V58Z" transform="translate(-3.36 -10.33)"/><path class="cls-2" d="M181.22,55.46a0.86,0.86,0,0,0-1-1,0.15,0.15,0,0,1-.15-0.2,0.2,0.2,0,0,1,.13-0.23,7.38,7.38,0,0,0,2.31-.81,0.19,0.19,0,0,1,.07.16c0,0.2-.08.61-0.08,1.5a3.69,3.69,0,0,1,2.31-1.44,0.94,0.94,0,0,1,1.06.92,0.81,0.81,0,0,1-.81.83c-0.68,0-.78-0.63-1.27-0.63a1.85,1.85,0,0,0-1.14.71,0.69,0.69,0,0,0-.12.48v3.75c0,0.61,0,1,.83,1,0.61,0,.68,0,0.68.2s-0.07.23-.25,0.23c-0.59,0-1.12,0-1.88,0-1.32,0-1.6,0-1.91,0-0.12,0-.15-0.1-0.15-0.22s0.2-.21.51-0.21c0.71,0,.84-0.13.84-0.84V55.46Z" transform="translate(-3.36 -10.33)"/><path class="cls-2" d="M193.12,54.74c0-.54-0.78-0.56-1.27-0.56-0.15,0-.17-0.08-0.17-0.21a0.19,0.19,0,0,1,.15-0.22c0.53,0,1.07,0,1.6,0s1,0,1.53,0c0.12,0,.12.15,0.12,0.22s0,0.2-.28.21a1,1,0,0,0-1,.73c-0.6,1.37-2.87,6.16-3.24,7.08-1.27,3.18-1.82,3.4-2.36,3.4a0.93,0.93,0,1,1,0-1.87,3.56,3.56,0,0,1,.83.28c0.3,0,1.07-1.58,1.07-2.36a7.86,7.86,0,0,0-.58-1.85c-1-2.67-1.35-4.11-1.7-5a1.43,1.43,0,0,0-1.19-.38,0.19,0.19,0,0,1-.15-0.23,0.18,0.18,0,0,1,.18-0.2c0.2,0,1.24,0,1.83,0s1.14,0,1.63,0a0.18,0.18,0,0,1,.2.22,0.2,0.2,0,0,1-.16.21c-0.1,0-.81,0-0.81.36,0,0.79.56,2.43,1.63,5.18A33.59,33.59,0,0,0,193.12,54.74Z" transform="translate(-3.36 -10.33)"/><path class="cls-3" d="M75.43,44.75a0.55,0.55,0,0,0,0,1.11H195.16a0.55,0.55,0,0,0,0-1.11H75.43Z" transform="translate(-3.36 -10.33)"/><circle class="cls-4" cx="31.38" cy="31.37" r="30.91"/><circle class="cls-1" cx="31.37" cy="31.36" r="26.68"/><path class="cls-3" d="M60.53,24.83a0.55,0.55,0,0,0-.17.76A30.26,30.26,0,0,1,12.9,62.65a0.55,0.55,0,1,0-.8.77A31.37,31.37,0,0,0,61.29,25,0.55,0.55,0,0,0,60.53,24.83Z" transform="translate(-3.36 -10.33)"/><path class="cls-3" d="M3.36,41.69a31.36,31.36,0,0,0,4.09,15.5,0.55,0.55,0,0,0,1-.55A30.27,30.27,0,0,1,34.73,11.43,29.62,29.62,0,0,1,57.7,22a0.55,0.55,0,1,0,.84-0.71A30.71,30.71,0,0,0,34.73,10.33,31.4,31.4,0,0,0,3.36,41.69Z" transform="translate(-3.36 -10.33)"/><path class="cls-2" d="M58.33,26.66A27.9,27.9,0,0,1,15.74,62.1L15,62.9A29,29,0,0,0,59.26,26.07Z" transform="translate(-3.36 -10.33)"/><path class="cls-2" d="M5.9,41.76a29.07,29.07,0,0,0,4.51,15.59l0.93-.59A27.9,27.9,0,0,1,55.73,23.22l0.83-.73A28.95,28.95,0,0,0,5.9,41.76Z" transform="translate(-3.36 -10.33)"/><path class="cls-3" d="M59.38,24.19c-1.73,1.11-3.45,2.22-5.12,3.45,1.95,3.11,3.06,5.56,3.06,9.34,0,9.67-8.51,19.35-17,23.19a25.33,25.33,0,0,1-10.51,2.05A63,63,0,0,1,22,61.67c-1.11-.11-2.56-0.45-3.67-0.45a14.66,14.66,0,0,0-2.17.39,28.7,28.7,0,0,1-4.89.44c-1.89,0-4.62-.11-6.12-1.44a1.13,1.13,0,0,1-.44-0.78c0-1.17,3.72-.89,4.45-0.89,3.95,0,7.84.17,11.79,0.28a27.76,27.76,0,0,0,6.78-4.5C32,50.82,35.19,46,38.58,41.32c3.95-5.45,7.56-9.67,13-13.67A21,21,0,0,0,50,26c-2.61-2.23-6.5-3-9.9-3A23.46,23.46,0,0,0,19.62,34.59a14.43,14.43,0,0,0-2.44,7.28V42c0,3.17,1.83,5.67,5.22,5.67,4.06,0,8.23-3.78,10.23-7.06a16.66,16.66,0,0,0,1.83-4.23,10.36,10.36,0,0,0,.5-2.61c0-.17,0-0.44.22-0.44,1,0,1.17,1.39,1.17,2.11a11.93,11.93,0,0,1-1.56,5.11C32.3,45.15,27.41,49,22.07,49c-4.67,0-8-2.94-8-7.72a14.36,14.36,0,0,1,2.5-7.4c4.89-7.78,14.12-12,23.19-12,5.28,0,9.45,1.28,13.45,4.73,1-.55,6.12-3.84,6.84-3.84a0.39,0.39,0,0,1,.44.39C60.49,23.69,59.76,23.92,59.38,24.19Zm-6.84,5.12c-0.89,1-1.78,1.95-2.62,2.95-1.22,1.5-2.28,3.06-3.39,4.61-5.62,8-9.62,16.4-18.85,20.91a39.15,39.15,0,0,1-4.23,1.67c2.95,0.28,5.95.67,9,.67A16,16,0,0,0,41,57.94,22.21,22.21,0,0,0,45.53,54c4.73-5.23,8.12-12.29,8.12-19.4A10.78,10.78,0,0,0,52.54,29.31Z" transform="translate(-3.36 -10.33)"/></svg>